<?xml version="1.0" encoding="utf-8"?>
<!-- Generator: Adobe Illustrator 23.0.1, SVG Export Plug-In . SVG Version: 6.00 Build 0)  -->
<svg version="1.1" id="レイヤー_1" xmlns="http://www.w3.org/2000/svg" xmlns:xlink="http://www.w3.org/1999/xlink" x="0px"
	 y="0px" viewBox="0 0 483.3 209.69" style="enable-background:new 0 0 483.3 209.69;" xml:space="preserve">
<style type="text/css">
	.st0{fill:#FFFFFF;}
</style>
<g>
	<path class="st0" d="M34.24,3.67h9.96c1.77,0,3.2,1.43,3.2,3.2c0.01,4.5,0.03,8.26,0.07,11.27c0.02,1.84,1.59,3.28,3.42,3.15
		c7.36-0.52,14.34-1.11,20.94-1.77c1.79-0.18,3.38,1.16,3.5,2.96l0.53,7.39c0.12,1.73-1.16,3.24-2.88,3.42
		c-8.56,0.85-15.9,1.53-22.04,2.03c-1.68,0.14-2.96,1.55-2.94,3.23c0.01,0.66,0.02,1.39,0.02,2.18c0,2.3,0,4.06,0,5.29
		c0,0.74,0.04,1.91,0.12,3.51c0,0.02,0,0.03,0,0.05c0.09,1.85,1.71,3.22,3.55,3.02c3.99-0.44,8.19-0.67,12.57-0.67
		c10.67,0,19.14,2.67,25.42,8c6.28,5.34,9.42,12.31,9.42,20.93c0,9.11-2.75,16.44-8.25,21.98c-5.5,5.54-12.85,8.31-22.04,8.31
		c-3.93,0-7.45-0.4-10.57-1.21c-1.62-0.42-2.67-1.97-2.4-3.62l1.22-7.59c0.29-1.78,2-3,3.76-2.63c2.46,0.51,5,0.77,7.63,0.77
		c4.43,0,7.92-1.31,10.46-3.94c2.54-2.63,3.82-6.32,3.82-11.08c0-10.09-7.14-15.14-21.42-15.14c-3.26,0-6.56,0.2-9.92,0.6
		c-1.63,0.19-2.86,1.59-2.84,3.23c0.05,3.85,0.08,8.98,0.08,15.38c0,8.95-1.5,15.18-4.49,18.71c-3,3.53-8.02,5.29-15.08,5.29
		c-8.04,0-14.9-2.18-20.56-6.53C2.83,99.04,0,94.08,0,88.5c0-6.15,2.87-12.08,8.62-17.79c5.33-5.29,12.39-9.58,21.19-12.86
		c1.26-0.47,2.08-1.7,2.05-3.05c-0.02-0.92-0.05-2-0.09-3.24c-0.08-2.46-0.12-4.27-0.12-5.42c0-1.07,0-2.71,0-4.92
		c0-0.58,0-1.13-0.01-1.63c-0.02-1.8-1.51-3.23-3.31-3.16c-5.77,0.21-12.21,0.33-19.31,0.36c-1.77,0.01-3.22-1.43-3.22-3.2v-7.51
		c0-1.76,1.43-3.19,3.19-3.2c7.05-0.03,13.44-0.15,19.16-0.36c1.75-0.06,3.11-1.52,3.08-3.27c-0.09-4.93-0.15-9.04-0.17-12.35
		C31.02,5.12,32.46,3.67,34.24,3.67z M32.26,77.67c0-2.47-2.67-3.99-4.82-2.77c-2.66,1.51-4.91,3.15-6.75,4.92
		c-2.87,2.75-4.31,5.35-4.31,7.82c0,2.14,1.03,4,3.08,5.6c2.05,1.6,4.39,2.4,7.02,2.4c2.46,0,4.04-0.55,4.74-1.66
		c0.7-1.11,1.05-3.8,1.05-8.06V77.67z M81.94,25.08l6.16-4.87c1.34-1.06,3.28-0.88,4.4,0.4c5.62,6.45,10.65,12.58,15.09,18.37
		c1.1,1.43,0.81,3.47-0.64,4.54l-6.38,4.69c-1.41,1.03-3.39,0.75-4.44-0.64c-4.36-5.8-9.23-11.74-14.59-17.84
		C80.32,28.34,80.5,26.23,81.94,25.08z"/>
	<path class="st0" d="M139.89,12.24l12.32,1.42c0.89,0.1,1.48,0.97,1.25,1.83c-3.71,14.25-5.56,29.19-5.56,44.83
		c0,15.64,1.86,30.62,5.57,44.94c0.22,0.87-0.36,1.73-1.25,1.83l-12.32,1.42c-0.74,0.08-1.43-0.39-1.61-1.11
		c-3.79-14.99-5.68-30.67-5.68-47.03c0-16.37,1.89-32.04,5.68-47.04C138.46,12.63,139.15,12.16,139.89,12.24z M198.54,15.64
		c1.1-0.06,1.75-1.26,1.2-2.21c-0.1-0.18-0.21-0.37-0.33-0.57c-0.31-0.53-0.58-1-0.81-1.42c-0.41-0.73-0.12-1.65,0.62-2.03
		l9.84-5.01c0.71-0.36,1.59-0.08,1.97,0.62c3.16,5.87,6.11,11.51,8.86,16.91c0.38,0.74,0.06,1.64-0.69,2l-7.95,3.79
		c-0.49,0.23-0.81,0.72-0.84,1.27c-0.18,3.67-0.31,7.27-0.39,10.79c-0.02,0.87,0.71,1.57,1.58,1.5c5.56-0.42,11.37-0.95,17.43-1.6
		c0.84-0.09,1.58,0.54,1.64,1.38l0.64,10.69c0.05,0.79-0.54,1.48-1.33,1.56c-7.91,0.77-13.93,1.35-18.05,1.73
		c-0.79,0.07-1.38,0.76-1.33,1.55c0.01,0.23,0.03,0.49,0.04,0.76c0.04,0.98,0.06,1.71,0.06,2.18c0.15,3.48,0.3,8.79,0.45,15.93
		c0.01,0.48,0.25,0.93,0.66,1.2c5.22,3.48,11.73,8.97,19.52,16.48c0.61,0.59,0.6,1.58-0.02,2.15l-8.17,7.52
		c-0.58,0.53-1.47,0.51-2.03-0.04c-2.96-2.92-5.94-5.7-8.94-8.35c-0.78-0.69-2-0.35-2.36,0.63c-1.48,4.07-3.97,7.25-7.46,9.53
		c-4.08,2.67-9.25,4-15.53,4c-8.55,0-14.9-1.82-19.06-5.47c-4.16-3.65-6.23-8.65-6.23-15c0-5.96,2.18-10.66,6.53-14.12
		c4.35-3.45,10.61-5.18,18.76-5.18c2.45,0,4.85,0.15,7.2,0.45c0.91,0.12,1.72-0.59,1.69-1.51c-0.08-2.3-0.17-5.2-0.3-8.71
		c0-0.31-0.02-0.8-0.06-1.47c0-0.01,0-0.01,0-0.02c-0.05-0.8-0.73-1.42-1.53-1.39c-9.39,0.41-18.87,0.62-28.45,0.64
		c-0.82,0-1.48-0.66-1.48-1.48V44.62c0-0.81,0.65-1.47,1.46-1.47c7.97-0.03,17.28-0.28,27.94-0.76c0.79-0.04,1.42-0.68,1.42-1.47
		c0.01-4.06,0.06-7.37,0.16-9.93c0.03-0.86-0.69-1.57-1.55-1.53c-10.77,0.47-20.09,0.76-27.95,0.85c-0.82,0.01-1.48-0.66-1.48-1.48
		V18.15c0-0.81,0.65-1.47,1.46-1.47C175.25,16.65,186.31,16.3,198.54,15.64z M196.12,83.62c-3.22-1.18-6.59-1.76-10.12-1.76
		c-6.27,0-9.41,2.08-9.41,6.24c0,4.55,3.14,6.82,9.41,6.82c3.53,0,6.1-0.84,7.7-2.53c1.61-1.69,2.41-4.33,2.41-7.94V83.62z
		 M238.65,20.05l-9.94,4.83c-0.72,0.35-1.59,0.06-1.96-0.65c-3.11-5.99-6.13-11.63-9.07-16.92c-0.4-0.73-0.12-1.64,0.62-2.02
		l9.96-5.12c0.71-0.37,1.58-0.1,1.97,0.6c2.59,4.73,5.62,10.49,9.09,17.28C239.69,18.78,239.39,19.68,238.65,20.05z"/>
	<path class="st0" d="M261.28,30.53v-9.46c0-1.38,1.12-2.5,2.5-2.5h68.11c0.16-4.9,2.03-9.06,5.6-12.47
		c3.57-3.41,7.89-5.12,12.95-5.12s9.42,1.81,13.07,5.42c3.65,3.61,5.48,7.97,5.48,13.07c0,5.1-1.83,9.46-5.48,13.07
		c-3.66,3.61-8.01,5.42-13.07,5.42h-0.24c-3.13,20.56-10.89,36.51-23.25,47.83c-11.96,10.95-28.93,18.3-50.88,22.04
		c-1.27,0.22-2.51-0.59-2.83-1.84l-2.48-9.53c-0.36-1.39,0.52-2.81,1.93-3.08c18.41-3.57,32.6-10.1,42.58-19.58
		c9.85-9.36,15.99-21.99,18.4-37.9c0.23-1.52-0.94-2.89-2.47-2.89h-67.41C262.4,33.03,261.28,31.91,261.28,30.53z M356.11,25.14
		c1.52-1.57,2.29-3.45,2.29-5.66c0-2.21-0.76-4.1-2.29-5.66c-1.53-1.57-3.42-2.35-5.66-2.35c-2.25,0-4.16,0.78-5.72,2.35
		c-1.57,1.57-2.35,3.45-2.35,5.66c0,2.21,0.78,4.1,2.35,5.66c1.57,1.57,3.47,2.35,5.72,2.35C352.69,27.48,354.58,26.7,356.11,25.14z
		"/>
	<path class="st0" d="M390.43,15h89.02c2.13,0,3.85,1.72,3.85,3.85v83.38c0,2.13-1.72,3.85-3.85,3.85h-89.02
		c-2.13,0-3.85-1.72-3.85-3.85V18.85C386.58,16.73,388.3,15,390.43,15z M466.14,87.7V33.51c0-2.13-1.72-3.85-3.85-3.85h-54.69
		c-2.13,0-3.85,1.72-3.85,3.85V87.7c0,2.13,1.72,3.85,3.85,3.85h54.69C464.41,91.55,466.14,89.83,466.14,87.7z"/>
	<g>
		<path class="st0" d="M52.96,182.04c0-8.35,6.61-14.29,15.67-14.29c9.17,0,15.67,5.94,15.67,14.29c0,8.4-6.5,14.39-15.67,14.39
			C59.57,196.43,52.96,190.44,52.96,182.04z M74.47,182.04c0-4.2-2.51-6.55-5.84-6.55c-3.28,0-5.84,2.36-5.84,6.55
			c0,4.25,2.56,6.66,5.84,6.66C71.96,188.7,74.47,186.29,74.47,182.04z"/>
		<path class="st0" d="M119.89,182.04c0,8.86-6.09,14.39-13.62,14.39c-3.64,0-6.35-1.02-8.19-3.23v2.77H88.8v-38h9.73v12.65
			c1.89-1.95,4.51-2.87,7.73-2.87C113.79,167.75,119.89,173.23,119.89,182.04z M110.05,182.04c0-4.2-2.56-6.55-5.84-6.55
			s-5.84,2.36-5.84,6.55c0,4.25,2.56,6.66,5.84,6.66S110.05,186.29,110.05,182.04z"/>
		<path class="st0" d="M122.65,182.04c0-8.35,6.61-14.29,15.67-14.29c9.17,0,15.67,5.94,15.67,14.29c0,8.4-6.5,14.39-15.67,14.39
			C129.25,196.43,122.65,190.44,122.65,182.04z M144.15,182.04c0-4.2-2.51-6.55-5.84-6.55c-3.28,0-5.84,2.36-5.84,6.55
			c0,4.25,2.56,6.66,5.84,6.66C141.65,188.7,144.15,186.29,144.15,182.04z"/>
		<path class="st0" d="M186.7,184.55h-20.18c0.82,2.82,3.23,4.46,6.81,4.46c2.71,0,4.51-0.77,6.4-2.41l5.12,5.33
			c-2.66,2.97-6.55,4.51-11.83,4.51c-9.88,0-16.28-6.09-16.28-14.39c0-8.35,6.5-14.29,15.26-14.29c8.19,0,14.85,5.22,14.85,14.39
			C186.86,182.86,186.75,183.78,186.7,184.55z M166.37,179.43h11.37c-0.51-2.92-2.66-4.76-5.68-4.76
			C169.04,174.67,166.94,176.51,166.37,179.43z"/>
		<path class="st0" d="M209.95,167.75v8.76c-0.87-0.1-1.48-0.15-2.2-0.15c-3.94,0-6.66,2-6.66,6.86v12.75h-9.73v-27.75h9.27v3.33
			C202.62,169.03,205.85,167.75,209.95,167.75z"/>
		<path class="st0" d="M243.23,168.22v27.75h-9.27V193c-2.1,2.3-5.07,3.43-8.24,3.43c-6.81,0-11.78-3.89-11.78-12.7v-15.52h9.73
			v13.93c0,4.3,1.69,5.99,4.61,5.99c2.87,0,5.22-1.89,5.22-6.55v-13.37H243.23z"/>
		<path class="st0" d="M295.45,182.09c0,8.81-6.09,14.34-13.62,14.34c-3.23,0-5.84-0.97-7.73-2.92v12.39h-9.73v-37.69h9.27v2.76
			c1.84-2.2,4.56-3.23,8.19-3.23C289.36,167.75,295.45,173.28,295.45,182.09z M285.62,182.09c0-4.2-2.56-6.61-5.84-6.61
			s-5.84,2.41-5.84,6.61c0,4.2,2.56,6.61,5.84,6.61S285.62,186.29,285.62,182.09z"/>
		<path class="st0" d="M318.54,167.75v8.76c-0.87-0.1-1.48-0.15-2.2-0.15c-3.94,0-6.66,2-6.66,6.86v12.75h-9.73v-27.75h9.27v3.33
			C311.22,169.03,314.45,167.75,318.54,167.75z"/>
		<path class="st0" d="M320.9,182.04c0-8.35,6.61-14.29,15.67-14.29c9.17,0,15.67,5.94,15.67,14.29c0,8.4-6.5,14.39-15.67,14.39
			C327.5,196.43,320.9,190.44,320.9,182.04z M342.4,182.04c0-4.2-2.51-6.55-5.84-6.55c-3.28,0-5.84,2.36-5.84,6.55
			c0,4.25,2.56,6.66,5.84,6.66C339.89,188.7,342.4,186.29,342.4,182.04z"/>
		<path class="st0" d="M367.34,168.62v0.62h6.61v7.27h-6.35v19.46h-9.73v-19.46h-4.04v-7.27h4.04v-0.72
			c0-6.66,4.15-11.01,11.57-11.01c2.36,0,4.87,0.46,6.45,1.43l-2.41,6.86c-0.82-0.46-1.89-0.82-2.92-0.82
			C368.51,164.99,367.34,166.17,367.34,168.62z M380.55,159.97c0-2.92,2.36-5.17,5.94-5.17c3.58,0,5.94,2.1,5.94,5.02
			c0,3.07-2.36,5.33-5.94,5.33C382.9,165.14,380.55,162.89,380.55,159.97z M381.62,168.22h9.73v27.75h-9.73V168.22z"/>
		<path class="st0" d="M397.65,157.97h9.73v38h-9.73V157.97z"/>
		<path class="st0" d="M441.89,184.55h-20.18c0.82,2.82,3.23,4.46,6.81,4.46c2.71,0,4.51-0.77,6.4-2.41l5.12,5.33
			c-2.66,2.97-6.55,4.51-11.83,4.51c-9.88,0-16.28-6.09-16.28-14.39c0-8.35,6.5-14.29,15.26-14.29c8.19,0,14.85,5.22,14.85,14.39
			C442.04,182.86,441.94,183.78,441.89,184.55z M421.56,179.43h11.37c-0.51-2.92-2.66-4.76-5.68-4.76
			C424.22,174.67,422.12,176.51,421.56,179.43z"/>
	</g>
</g>
</svg>
